<svg xmlns="http://www.w3.org/2000/svg" viewBox="0 0 512 512" role="img" aria-label="Haydetail logo">
  <defs>
    <linearGradient id="silver" x1="0" y1="0" x2="1" y2="1">
      <stop offset="0%" stop-color="#f2f2f2"/>
      <stop offset="45%" stop-color="#bfbfbf"/>
      <stop offset="100%" stop-color="#f8f8f8"/>
    </linearGradient>
    <linearGradient id="gold" x1="0" y1="0" x2="1" y2="0">
      <stop offset="0%" stop-color="#f7c954"/>
      <stop offset="60%" stop-color="#d99a2b"/>
      <stop offset="100%" stop-color="#f8d36b"/>
    </linearGradient>
    <linearGradient id="darkGold" x1="0" y1="0" x2="1" y2="0">
      <stop offset="0%" stop-color="#f4c64e"/>
      <stop offset="100%" stop-color="#9a6b17"/>
    </linearGradient>
    <filter id="softGlow" x="-20%" y="-20%" width="140%" height="140%">
      <feGaussianBlur stdDeviation="3" result="blur"/>
      <feMerge>
        <feMergeNode in="blur"/>
        <feMergeNode in="SourceGraphic"/>
      </feMerge>
    </filter>
  </defs>

  <path
    d="M256 36c60 0 120 18 168 50v165c0 96-69 181-168 210C157 432 88 347 88 251V86c48-32 108-50 168-50z"
    fill="#0f0f10"
    stroke="url(#silver)"
    stroke-width="18"
  />
  <path
    d="M256 66c52 0 104 15 146 43v145c0 83-60 157-146 182C170 411 110 337 110 254V109c42-28 94-43 146-43z"
    fill="none"
    stroke="url(#silver)"
    stroke-width="6"
    opacity="0.6"
  />

  <text x="256" y="150" text-anchor="middle" font-family="Arial, sans-serif" font-size="24" fill="url(#silver)" letter-spacing="2">
    AUTO DETAILING
  </text>

  <path
    d="M118 240c24-30 68-48 122-48h64c52 0 92 14 116 42l20 24h-46l-12-14c-12-14-40-22-78-22h-64c-34 0-64 8-80 22l-14 14h-48z"
    fill="#e6e6e6"
    opacity="0.95"
  />
  <path
    d="M150 260h212c12 0 22 8 22 18v10H128v-10c0-10 10-18 22-18z"
    fill="#cfcfcf"
  />
  <path d="M168 294h176" stroke="#ffffff" stroke-width="6" stroke-linecap="round" opacity="0.85"/>

  <g filter="url(#softGlow)">
    <text x="138" y="330" font-family="Arial Black, Arial, sans-serif" font-size="56" fill="#f2f2f2" letter-spacing="2">
      HAY
    </text>
    <text x="268" y="330" font-family="Arial Black, Arial, sans-serif" font-size="56" fill="url(#gold)" letter-spacing="2">
      DETAIL
    </text>
    <rect x="248" y="344" width="132" height="6" fill="url(#darkGold)" opacity="0.75"/>
  </g>
</svg>
